{
    "asset" : {
        "generator" : "Khronos glTF Blender I/O v3.3.27",
        "version" : "2.0"
    },
    "extensionsUsed" : [
        "KHR_materials_clearcoat"
    ],
    "scene" : 0,
    "scenes" : [
        {
            "name" : "Scene",
            "nodes" : [
                0,
                1,
                2
            ]
        }
    ],
    "nodes" : [
        {
            "mesh" : 0,
            "name" : "Sphere"
        },
        {
            "mesh" : 1,
            "name" : "Cylinder",
            "scale" : [
                0.7534195184707642,
                0.7534195184707642,
                0.7534195184707642
            ],
            "translation" : [
                0.013310583308339119,
                0.49946820735931396,
                0.03487662225961685
            ]
        },
        {
            "mesh" : 2,
            "name" : "NurbsPath"
        }
    ],
    "materials" : [
        {
            "doubleSided" : true,
            "extensions" : {
                "KHR_materials_clearcoat" : {
                    "clearcoatFactor" : 0.015748053789138794,
                    "clearcoatRoughnessFactor" : 0.029999999329447746
                }
            },
            "name" : "Material.001",
            "pbrMetallicRoughness" : {
                "baseColorFactor" : [
                    0.04100431501865387,
                    0.0435117743909359,
                    0.0930757001042366,
                    1
                ],
                "roughnessFactor" : 0.8464567065238953
            }
        },
        {
            "doubleSided" : true,
            "name" : "Material.002",
            "pbrMetallicRoughness" : {
                "baseColorFactor" : [
                    0.504300057888031,
                    0.8000000715255737,
                    0.09317845106124878,
                    1
                ],
                "metallicFactor" : 0,
                "roughnessFactor" : 0.5
            }
        },
        {
            "doubleSided" : true,
            "name" : "Material.003",
            "pbrMetallicRoughness" : {
                "baseColorFactor" : [
                    0.06997451931238174,
                    0.04593382775783539,
                    0.03270161896944046,
                    1
                ],
                "metallicFactor" : 0.7244094610214233,
                "roughnessFactor" : 0.5
            }
        }
    ],
    "meshes" : [
        {
            "name" : "Sphere",
            "primitives" : [
                {
                    "attributes" : {
                        "POSITION" : 0,
                        "NORMAL" : 1,
                        "TEXCOORD_0" : 2
                    },
                    "indices" : 3,
                    "material" : 0
                }
            ]
        },
        {
            "name" : "Cylinder",
            "primitives" : [
                {
                    "attributes" : {
                        "POSITION" : 4,
                        "NORMAL" : 5,
                        "TEXCOORD_0" : 6
                    },
                    "indices" : 7,
                    "material" : 1
                }
            ]
        },
        {
            "name" : "NurbsPath.003",
            "primitives" : [
                {
                    "attributes" : {
                        "POSITION" : 8,
                        "NORMAL" : 9,
                        "TEXCOORD_0" : 10
                    },
                    "indices" : 11,
                    "material" : 2
                }
            ]
        }
    ],
    "accessors" : [
        {
            "bufferView" : 0,
            "componentType" : 5126,
            "count" : 954,
            "max" : [
                1.2936490774154663,
                0.7071067690849304,
                1.1390533447265625
            ],
            "min" : [
                -1.2936490774154663,
                -0.8914525508880615,
                -1.1390533447265625
            ],
            "type" : "VEC3"
        },
        {
            "bufferView" : 1,
            "componentType" : 5126,
            "count" : 954,
            "type" : "VEC3"
        },
        {
            "bufferView" : 2,
            "componentType" : 5126,
            "count" : 954,
            "type" : "VEC2"
        },
        {
            "bufferView" : 3,
            "componentType" : 5123,
            "count" : 5550,
            "type" : "SCALAR"
        },
        {
            "bufferView" : 4,
            "componentType" : 5126,
            "count" : 16641,
            "max" : [
                0.9992120265960693,
                1.1300049607143592e-07,
                0.9992120265960693
            ],
            "min" : [
                -0.9992120265960693,
                -1.1424224766187763e-07,
                -0.9992120265960693
            ],
            "type" : "VEC3"
        },
        {
            "bufferView" : 5,
            "componentType" : 5126,
            "count" : 16641,
            "type" : "VEC3"
        },
        {
            "bufferView" : 6,
            "componentType" : 5126,
            "count" : 16641,
            "type" : "VEC2"
        },
        {
            "bufferView" : 7,
            "componentType" : 5123,
            "count" : 98304,
            "type" : "SCALAR"
        },
        {
            "bufferView" : 8,
            "componentType" : 5126,
            "count" : 1868,
            "max" : [
                1.1920253038406372,
                0.5291914939880371,
                1.1996954679489136
            ],
            "min" : [
                -1.1920253038406372,
                -0.1572515368461609,
                0.048438750207424164
            ],
            "type" : "VEC3"
        },
        {
            "bufferView" : 9,
            "componentType" : 5126,
            "count" : 1868,
            "type" : "VEC3"
        },
        {
            "bufferView" : 10,
            "componentType" : 5126,
            "count" : 1868,
            "type" : "VEC2"
        },
        {
            "bufferView" : 11,
            "componentType" : 5123,
            "count" : 10224,
            "type" : "SCALAR"
        }
    ],
    "bufferViews" : [
        {
            "buffer" : 0,
            "byteLength" : 11448,
            "byteOffset" : 0,
            "target" : 34962
        },
        {
            "buffer" : 0,
            "byteLength" : 11448,
            "byteOffset" : 11448,
            "target" : 34962
        },
        {
            "buffer" : 0,
            "byteLength" : 7632,
            "byteOffset" : 22896,
            "target" : 34962
        },
        {
            "buffer" : 0,
            "byteLength" : 11100,
            "byteOffset" : 30528,
            "target" : 34963
        },
        {
            "buffer" : 0,
            "byteLength" : 199692,
            "byteOffset" : 41628,
            "target" : 34962
        },
        {
            "buffer" : 0,
            "byteLength" : 199692,
            "byteOffset" : 241320,
            "target" : 34962
        },
        {
            "buffer" : 0,
            "byteLength" : 133128,
            "byteOffset" : 441012,
            "target" : 34962
        },
        {
            "buffer" : 0,
            "byteLength" : 196608,
            "byteOffset" : 574140,
            "target" : 34963
        },
        {
            "buffer" : 0,
            "byteLength" : 22416,
            "byteOffset" : 770748,
            "target" : 34962
        },
        {
            "buffer" : 0,
            "byteLength" : 22416,
            "byteOffset" : 793164,
            "target" : 34962
        },
        {
            "buffer" : 0,
            "byteLength" : 14944,
            "byteOffset" : 815580,
            "target" : 34962
        },
        {
            "buffer" : 0,
            "byteLength" : 20448,
            "byteOffset" : 830524,
            "target" : 34963
        }
    ],
    "buffers" : [
        {
            "byteLength" : 850972,
            "uri" : "data:application/octet-stream;base64,"
        }
    ]
}
